<svg width="66" height="66" viewBox="0 0 66 66" fill="none" xmlns="http://www.w3.org/2000/svg">
<rect x="0.5" y="0.5" width="65" height="65" rx="11.5" fill="#1F1F1F"/>
<rect x="0.5" y="0.5" width="65" height="65" rx="11.5" stroke="#333333"/>
<path fill-rule="evenodd" clip-rule="evenodd" d="M43.6246 29.544C43.672 35.4118 38.7821 40.8389 32.9143 40.7916C27.0464 40.7442 22.4227 35.2403 22.3754 29.3725C22.328 23.5047 27.0464 18.7863 32.9143 18.8336C38.7821 18.881 43.5773 23.6762 43.6246 29.544ZM33.7169 23.4375C33.1301 23.4327 32.6506 23.9046 32.6459 24.4913C32.6411 25.0781 33.113 25.5576 33.6998 25.5624C35.4481 25.5765 36.8818 27.0102 36.8959 28.7585C36.9006 29.3453 37.3801 29.8171 37.9669 29.8124C38.5537 29.8076 39.0255 29.3281 39.0208 28.7413C38.9973 25.8328 36.6254 23.4609 33.7169 23.4375Z" fill="#CE7D63"/>
<path d="M36.0699 41.8037C36.5406 43.3087 35.5652 44.8237 34.0626 45.129V47.1665C34.0626 47.7533 33.5869 48.229 33.0001 48.229C32.4133 48.229 31.9376 47.7533 31.9376 47.1665V45.129C30.435 44.8237 29.4597 43.3087 29.9303 41.8037L29.9401 41.7735C30.8812 42.0479 31.8728 42.1998 32.9029 42.2081C33.9951 42.2169 35.0532 42.0628 36.0593 41.7705C36.0631 41.7816 36.0665 41.7927 36.0699 41.8037Z" fill="#CE7D63"/>
</svg>
