<svg width="1047" height="238" viewBox="0 0 1047 238" fill="none" xmlns="http://www.w3.org/2000/svg">
<path d="M4.0752 85V29.5469H21.29C28.2979 29.5469 33.7822 31.8447 37.7432 36.4404C41.7041 41.0361 43.6846 47.46 43.6846 55.7119V58.7207C43.6846 66.9473 41.7168 73.3838 37.7812 78.0303C33.8711 82.6768 28.374 85 21.29 85H4.0752ZM14.2061 77.459H20.4521C24.5146 77.459 27.6504 75.9736 29.8594 73.0029C32.0684 70.0068 33.1729 65.6396 33.1729 59.9014V54.6836C33.1729 48.8945 32.0303 44.5527 29.7451 41.6582C27.46 38.7637 24.3623 37.3164 20.4521 37.3164H14.2061V77.459ZM50.7305 85V29.5469H61.2041V85H50.7305ZM68.25 58.7969V55.75C68.25 46.9902 70.2178 40.2998 74.1533 35.6787C78.0889 31.0576 83.4717 28.7471 90.3018 28.7471C96.4971 28.7471 101.22 30.3086 104.47 33.4316C107.745 36.5547 109.396 40.6172 109.421 45.6191V47.1045H99.4805V46.0762C99.4805 43.1055 98.6807 40.7822 97.0811 39.1064C95.5068 37.4053 93.1455 36.5547 89.9971 36.5547C86.5186 36.5547 83.8145 37.9766 81.8848 40.8203C79.9551 43.6641 78.9902 47.917 78.9902 53.5791V61.082C78.9902 66.6426 80.0312 70.9082 82.1133 73.8789C84.1953 76.8242 87.1152 78.2969 90.873 78.2969C92.752 78.2969 94.3896 78.0557 95.7861 77.5732C97.1826 77.0654 98.4775 76.3037 99.6709 75.2881V63.8623H90.1113V56.5879H109.535V78.6396C108.266 80.1123 106.057 81.6738 102.908 83.3242C99.7852 84.9746 95.748 85.7998 90.7969 85.7998C83.7891 85.7998 78.2793 83.4893 74.2676 78.8682C70.2559 74.2471 68.25 67.5566 68.25 58.7969ZM116.619 85V29.5469H127.093V85H116.619ZM131.739 37.9258V29.5469H172.529V37.9258H157.409V85H146.897V37.9258H131.739ZM168.949 85L186.507 29.5088H198.352L215.681 85H205.359L193.4 44.6289C193.096 43.6133 192.842 42.7246 192.639 41.9629C192.436 41.1758 192.245 40.4395 192.067 39.7539H191.915C191.737 40.4395 191.534 41.1758 191.306 41.9629C191.103 42.7246 190.861 43.6133 190.582 44.6289L179.004 85H168.949ZM178.052 72.3555L179.689 65.1953H204.598L206.35 72.3555H178.052ZM219.261 85V29.5469H229.62V76.6211H251.291V85H219.261ZM271.362 70.1846V67.4043H280.998V69.4609C280.998 72.5332 281.823 74.8184 283.474 76.3164C285.124 77.8145 287.422 78.5635 290.367 78.5635C293.262 78.5635 295.483 77.8525 297.032 76.4307C298.581 75.0088 299.355 73.0918 299.355 70.6797C299.355 68.5469 298.568 66.8203 296.994 65.5C295.445 64.1797 292.462 62.7705 288.044 61.2725C282.585 59.3936 278.573 57.1719 276.009 54.6074C273.444 52.0176 272.162 48.5137 272.162 44.0957C272.162 39.4492 273.762 35.7422 276.961 32.9746C280.186 30.1816 284.54 28.7852 290.024 28.7852C295.433 28.7852 299.787 30.0928 303.088 32.708C306.389 35.3232 308.039 39.0176 308.039 43.791V45.9619H298.556V44.4766C298.556 41.8867 297.832 39.8682 296.385 38.4209C294.963 36.9482 292.906 36.2119 290.215 36.2119C287.32 36.2119 285.226 36.8594 283.931 38.1543C282.636 39.4238 281.988 41.1377 281.988 43.2959C281.988 45.3018 282.801 46.9395 284.426 48.209C286.051 49.4531 289.136 50.8242 293.681 52.3223C299.013 54.0742 302.923 56.3086 305.411 59.0254C307.925 61.7422 309.182 65.3477 309.182 69.8418C309.182 74.7676 307.468 78.665 304.04 81.5342C300.638 84.3779 296.118 85.7998 290.481 85.7998C284.819 85.7998 280.211 84.4795 276.656 81.8389C273.127 79.1982 271.362 75.3135 271.362 70.1846ZM314.057 58.7969V55.75C314.057 46.3047 316.088 39.4492 320.15 35.1836C324.213 30.8926 329.456 28.7471 335.88 28.7471C342.329 28.7471 347.585 30.8926 351.647 35.1836C355.735 39.4492 357.779 46.3047 357.779 55.75V58.7969C357.779 68.2422 355.735 75.1104 351.647 79.4014C347.585 83.667 342.329 85.7998 335.88 85.7998C329.456 85.7998 324.213 83.667 320.15 79.4014C316.088 75.1104 314.057 68.2422 314.057 58.7969ZM324.835 61.2344C324.835 67.3789 325.825 71.7715 327.806 74.4121C329.786 77.0273 332.478 78.335 335.88 78.335C339.308 78.335 342.012 77.0273 343.992 74.4121C345.973 71.7715 346.963 67.3789 346.963 61.2344V53.3506C346.963 47.2314 345.973 42.8643 343.992 40.249C342.012 37.6338 339.308 36.3262 335.88 36.3262C332.478 36.3262 329.786 37.6338 327.806 40.249C325.825 42.8643 324.835 47.2314 324.835 53.3506V61.2344ZM364.521 85V29.5469H374.88V76.6211H396.551V85H364.521ZM400.207 65.2334V29.5469H410.566V66.4521C410.566 70.7178 411.341 73.7646 412.89 75.5928C414.438 77.4209 416.609 78.335 419.402 78.335C422.195 78.335 424.354 77.4209 425.877 75.5928C427.426 73.7646 428.2 70.7178 428.2 66.4521V29.5469H438.56V65.2334C438.56 72.2412 436.884 77.4209 433.532 80.7725C430.181 84.124 425.509 85.7998 419.517 85.7998C413.423 85.7998 408.675 84.124 405.272 80.7725C401.896 77.4209 400.207 72.2412 400.207 65.2334ZM442.901 37.9258V29.5469H483.691V37.9258H468.571V85H458.06V37.9258H442.901ZM488.49 85V29.5469H498.964V85H488.49ZM506.01 58.7969V55.75C506.01 46.3047 508.041 39.4492 512.104 35.1836C516.166 30.8926 521.409 28.7471 527.833 28.7471C534.282 28.7471 539.538 30.8926 543.601 35.1836C547.688 39.4492 549.732 46.3047 549.732 55.75V58.7969C549.732 68.2422 547.688 75.1104 543.601 79.4014C539.538 83.667 534.282 85.7998 527.833 85.7998C521.409 85.7998 516.166 83.667 512.104 79.4014C508.041 75.1104 506.01 68.2422 506.01 58.7969ZM516.788 61.2344C516.788 67.3789 517.778 71.7715 519.759 74.4121C521.739 77.0273 524.431 78.335 527.833 78.335C531.261 78.335 533.965 77.0273 535.945 74.4121C537.926 71.7715 538.916 67.3789 538.916 61.2344V53.3506C538.916 47.2314 537.926 42.8643 535.945 40.249C533.965 37.6338 531.261 36.3262 527.833 36.3262C524.431 36.3262 521.739 37.6338 519.759 40.249C517.778 42.8643 516.788 47.2314 516.788 53.3506V61.2344ZM556.474 85V29.5469H567.1L584.619 64.5859C585 65.4238 585.343 66.2871 585.647 67.1758C585.978 68.0391 586.257 68.877 586.485 69.6895H586.676C586.625 68.8262 586.6 67.9375 586.6 67.0234C586.6 66.084 586.6 65.1826 586.6 64.3193V29.5469H595.55V85H585.19L567.366 49.6562C566.985 48.8945 566.63 48.0947 566.3 47.2568C565.995 46.3936 565.729 45.5557 565.5 44.7432H565.31C565.36 45.6064 565.386 46.4697 565.386 47.333C565.411 48.1963 565.424 49.0723 565.424 49.9609V85H556.474ZM601.948 70.1846V67.4043H611.584V69.4609C611.584 72.5332 612.409 74.8184 614.06 76.3164C615.71 77.8145 618.008 78.5635 620.953 78.5635C623.848 78.5635 626.069 77.8525 627.618 76.4307C629.167 75.0088 629.941 73.0918 629.941 70.6797C629.941 68.5469 629.154 66.8203 627.58 65.5C626.031 64.1797 623.048 62.7705 618.63 61.2725C613.171 59.3936 609.159 57.1719 606.595 54.6074C604.03 52.0176 602.748 48.5137 602.748 44.0957C602.748 39.4492 604.348 35.7422 607.547 32.9746C610.771 30.1816 615.126 28.7852 620.61 28.7852C626.019 28.7852 630.373 30.0928 633.674 32.708C636.975 35.3232 638.625 39.0176 638.625 43.791V45.9619H629.142V44.4766C629.142 41.8867 628.418 39.8682 626.971 38.4209C625.549 36.9482 623.492 36.2119 620.801 36.2119C617.906 36.2119 615.812 36.8594 614.517 38.1543C613.222 39.4238 612.574 41.1377 612.574 43.2959C612.574 45.3018 613.387 46.9395 615.012 48.209C616.637 49.4531 619.722 50.8242 624.267 52.3223C629.599 54.0742 633.509 56.3086 635.997 59.0254C638.511 61.7422 639.768 65.3477 639.768 69.8418C639.768 74.7676 638.054 78.665 634.626 81.5342C631.224 84.3779 626.704 85.7998 621.067 85.7998C615.405 85.7998 610.797 84.4795 607.242 81.8389C603.713 79.1982 601.948 75.3135 601.948 70.1846Z" fill="#F9EFEC"/>
<rect x="672" y="32.5" width="52" height="52" rx="26" fill="#CE7D63"/>
<path d="M699.5 51L707 58.5M707 58.5L699.5 66M707 58.5H689" stroke="#0F0F0F" stroke-width="1.5" stroke-linecap="round" stroke-linejoin="round"/>
<path d="M727.666 83.1316C722.522 89.1011 715.67 93.3485 708.036 95.3003C700.402 97.2521 692.352 96.8143 684.974 94.0459C677.597 91.2775 671.246 86.312 666.78 79.8197C662.314 73.3274 659.948 65.6211 660.001 57.7413C660.054 49.8614 662.523 42.1876 667.076 35.7559C671.629 29.3243 678.046 24.4445 685.46 21.7756C692.874 19.1066 700.929 18.777 708.537 20.8312C716.144 22.8854 722.938 27.2246 728.001 33.2627L726.685 34.3662C721.848 28.5974 715.357 24.4518 708.089 22.4892C700.821 20.5266 693.125 20.8415 686.042 23.3914C678.958 25.9413 672.828 30.6034 668.478 36.7482C664.128 42.893 661.769 50.2245 661.718 57.7528C661.668 65.2811 663.928 72.6437 668.195 78.8464C672.462 85.049 678.529 89.7931 685.578 92.438C692.626 95.0829 700.317 95.5012 707.611 93.6365C714.905 91.7718 721.451 87.7138 726.365 82.0105L727.666 83.1316Z" fill="#CE7D63"/>
<path d="M732.961 60.8125V60.4727H735.551V60.7773C735.551 61.7695 735.863 62.5156 736.488 63.0156C737.121 63.5078 738 63.7539 739.125 63.7539C740.25 63.7539 741.109 63.5078 741.703 63.0156C742.305 62.5234 742.605 61.875 742.605 61.0703C742.605 60.3125 742.32 59.7148 741.75 59.2773C741.18 58.832 740.059 58.3594 738.387 57.8594C736.605 57.3359 735.309 56.7031 734.496 55.9609C733.684 55.2109 733.277 54.1602 733.277 52.8086C733.277 51.4258 733.789 50.2969 734.812 49.4219C735.836 48.5469 737.238 48.1094 739.02 48.1094C740.793 48.1094 742.207 48.5625 743.262 49.4688C744.324 50.3672 744.855 51.5508 744.855 53.0195V53.3125H742.289V53.0547C742.289 52.1875 742.016 51.4961 741.469 50.9805C740.922 50.457 740.109 50.1953 739.031 50.1953C737.938 50.1953 737.133 50.418 736.617 50.8633C736.109 51.3086 735.855 51.9102 735.855 52.668C735.855 53.3789 736.125 53.9375 736.664 54.3438C737.211 54.7422 738.328 55.1914 740.016 55.6914C741.773 56.207 743.074 56.8594 743.918 57.6484C744.762 58.4375 745.184 59.543 745.184 60.9648C745.184 62.4336 744.637 63.6133 743.543 64.5039C742.449 65.3867 740.98 65.8281 739.137 65.8281C737.285 65.8281 735.793 65.3906 734.66 64.5156C733.527 63.6406 732.961 62.4062 732.961 60.8125ZM746.309 50.5234V48.4375H759.328V50.5234H754.125V65.5H751.512V50.5234H746.309ZM758.508 65.5L764.707 48.3555H767.344L773.566 65.5H770.859L766.406 52.7266C766.32 52.4531 766.242 52.1953 766.172 51.9531C766.109 51.7109 766.051 51.4648 765.996 51.2148H765.902C765.84 51.4648 765.773 51.7109 765.703 51.9531C765.641 52.1953 765.562 52.4531 765.469 52.7266L761.027 65.5H758.508ZM761.438 61.2344L762.105 59.2305H769.875L770.531 61.2344H761.438ZM775.266 65.5V48.4375H780.902C782.715 48.4375 784.113 48.8984 785.098 49.8203C786.09 50.7422 786.586 51.9844 786.586 53.5469C786.586 55.1172 786.09 56.3789 785.098 57.332C784.105 58.2773 782.707 58.75 780.902 58.75H777.855V65.5H775.266ZM777.855 56.7461H780.797C781.984 56.7461 782.812 56.4453 783.281 55.8438C783.75 55.2422 783.988 54.4844 783.996 53.5703C783.996 52.6641 783.758 51.9219 783.281 51.3438C782.812 50.7656 781.984 50.4727 780.797 50.4648H777.855V56.7461ZM784.523 65.5L780.48 57.6602L783.094 57.3438L787.418 65.5H784.523ZM787.23 50.5234V48.4375H800.25V50.5234H795.047V65.5H792.434V50.5234H787.23ZM805.5 65.5L811.699 48.3555H814.336L820.559 65.5H817.852L813.398 52.7266C813.312 52.4531 813.234 52.1953 813.164 51.9531C813.102 51.7109 813.043 51.4648 812.988 51.2148H812.895C812.832 51.4648 812.766 51.7109 812.695 51.9531C812.633 52.1953 812.555 52.4531 812.461 52.7266L808.02 65.5H805.5ZM808.43 61.2344L809.098 59.2305H816.867L817.523 61.2344H808.43ZM827.836 65.5V48.4375H833.637C835.48 48.4375 836.895 48.9141 837.879 49.8672C838.863 50.8203 839.355 52.1055 839.355 53.7227C839.355 55.332 838.863 56.6211 837.879 57.5898C836.902 58.5586 835.484 59.043 833.625 59.043H830.426V65.5H827.836ZM830.426 57.0039H833.461C834.688 57.0039 835.543 56.6953 836.027 56.0781C836.512 55.4531 836.754 54.6719 836.754 53.7344C836.754 52.7969 836.512 52.0234 836.027 51.4141C835.543 50.7969 834.688 50.4883 833.461 50.4883H830.426V57.0039ZM841.711 65.5V48.4375H847.348C849.16 48.4375 850.559 48.8984 851.543 49.8203C852.535 50.7422 853.031 51.9844 853.031 53.5469C853.031 55.1172 852.535 56.3789 851.543 57.332C850.551 58.2773 849.152 58.75 847.348 58.75H844.301V65.5H841.711ZM844.301 56.7461H847.242C848.43 56.7461 849.258 56.4453 849.727 55.8438C850.195 55.2422 850.434 54.4844 850.441 53.5703C850.441 52.6641 850.203 51.9219 849.727 51.3438C849.258 50.7656 848.43 50.4727 847.242 50.4648H844.301V56.7461ZM850.969 65.5L846.926 57.6602L849.539 57.3438L853.863 65.5H850.969ZM855.398 57.4844V56.4531C855.398 53.7266 856.059 51.6562 857.379 50.2422C858.707 48.8203 860.418 48.1094 862.512 48.1094C864.598 48.1094 866.305 48.8203 867.633 50.2422C868.961 51.6562 869.625 53.7266 869.625 56.4531V57.4844C869.625 60.2109 868.961 62.2852 867.633 63.707C866.305 65.1211 864.598 65.8281 862.512 65.8281C860.418 65.8281 858.707 65.1211 857.379 63.707C856.059 62.2852 855.398 60.2109 855.398 57.4844ZM858.047 57.6602C858.047 59.6602 858.453 61.1719 859.266 62.1953C860.078 63.2188 861.16 63.7305 862.512 63.7305C863.863 63.7305 864.945 63.2188 865.758 62.1953C866.57 61.1719 866.977 59.6602 866.977 57.6602V56.2773C866.977 54.2773 866.57 52.7656 865.758 51.7422C864.945 50.7188 863.863 50.207 862.512 50.207C861.16 50.207 860.078 50.7188 859.266 51.7422C858.453 52.7656 858.047 54.2773 858.047 56.2773V57.6602ZM871.113 60.6133V60.3906H873.656V60.6367C873.656 61.6914 873.895 62.4727 874.371 62.9805C874.855 63.4883 875.547 63.7422 876.445 63.7422C877.328 63.7422 878.012 63.4688 878.496 62.9219C878.988 62.3672 879.234 61.5078 879.234 60.3438V48.4375H881.836V60.2383C881.836 61.9961 881.352 63.3672 880.383 64.3516C879.422 65.3359 878.117 65.8281 876.469 65.8281C874.836 65.8281 873.535 65.3789 872.566 64.4805C871.598 63.582 871.113 62.293 871.113 60.6133ZM885.281 65.5V48.4375H895.887V50.5234H887.859V55.6914H894.797V57.7422H887.859V63.4258H896.004V65.5H885.281ZM897.867 57.4844V56.4531C897.867 53.7266 898.527 51.6562 899.848 50.2422C901.176 48.8203 902.863 48.1094 904.91 48.1094C906.918 48.1094 908.492 48.6523 909.633 49.7383C910.773 50.8164 911.344 52.1875 911.344 53.8516V54.1211H908.742V53.8164C908.742 52.7148 908.422 51.8398 907.781 51.1914C907.148 50.5352 906.188 50.207 904.898 50.207C903.594 50.207 902.539 50.6992 901.734 51.6836C900.93 52.6602 900.527 54.1836 900.527 56.2539V57.6836C900.527 59.6289 900.93 61.125 901.734 62.1719C902.539 63.2109 903.602 63.7305 904.922 63.7305C906.148 63.7305 907.074 63.3984 907.699 62.7344C908.324 62.0703 908.672 61.1914 908.742 60.0977V59.8281H911.344L911.332 60.1328C911.23 61.7578 910.637 63.1133 909.551 64.1992C908.473 65.2773 906.922 65.8164 904.898 65.8164C902.82 65.8164 901.129 65.1055 899.824 63.6836C898.52 62.2539 897.867 60.1875 897.867 57.4844ZM912.551 50.5234V48.4375H925.57V50.5234H920.367V65.5H917.754V50.5234H912.551Z" fill="#CE7D63"/>
<path d="M0.418945 158.926V150.547H41.209V158.926H26.0889V206H15.5771V158.926H0.418945ZM45.7412 206V150.547H56.1006V172.979H75.4102V150.547H85.7695V206H75.4102V181.701H56.1006V206H45.7412ZM89.4258 206L106.983 150.509H118.828L136.157 206H125.836L113.877 165.629C113.572 164.613 113.318 163.725 113.115 162.963C112.912 162.176 112.722 161.439 112.544 160.754H112.392C112.214 161.439 112.011 162.176 111.782 162.963C111.579 163.725 111.338 164.613 111.059 165.629L99.4805 206H89.4258ZM98.5283 193.355L100.166 186.195H125.074L126.826 193.355H98.5283ZM132.349 158.926V150.547H173.139V158.926H158.019V206H147.507V158.926H132.349ZM193.286 206V150.547H210.501C217.509 150.547 222.993 152.845 226.954 157.44C230.915 162.036 232.896 168.46 232.896 176.712V179.721C232.896 187.947 230.928 194.384 226.992 199.03C223.082 203.677 217.585 206 210.501 206H193.286ZM203.417 198.459H209.663C213.726 198.459 216.861 196.974 219.07 194.003C221.279 191.007 222.384 186.64 222.384 180.901V175.684C222.384 169.895 221.241 165.553 218.956 162.658C216.671 159.764 213.573 158.316 209.663 158.316H203.417V198.459ZM239.675 206V150.547H259.327C264.659 150.547 268.798 152.096 271.743 155.193C274.714 158.291 276.199 162.366 276.199 167.419C276.199 172.573 274.663 176.775 271.591 180.025C268.519 183.25 264.405 184.862 259.251 184.862H250.034V206H239.675ZM250.034 177.702H257.385C260.482 177.702 262.641 176.788 263.859 174.96C265.104 173.132 265.726 170.796 265.726 167.952C265.726 165.058 265.104 162.722 263.859 160.944C262.641 159.142 260.482 158.228 257.385 158.202H250.034V177.702ZM267.059 206L255.709 181.282L265.269 178.997L278.446 206H267.059ZM282.674 206V150.547H293.147V206H282.674ZM296.537 150.547H307.201L318.817 189.775C318.995 190.359 319.173 190.969 319.351 191.604C319.528 192.238 319.681 192.81 319.808 193.317H319.998C320.1 192.81 320.239 192.213 320.417 191.527C320.62 190.842 320.798 190.258 320.95 189.775L332.566 150.547H342.735L325.521 206.305H313.752L296.537 150.547ZM345.858 206V150.547H379.222V158.926H355.875V173.894H375.756V181.473H355.875V197.85H379.717V206H345.858ZM399.407 191.185V188.404H409.043V190.461C409.043 193.533 409.868 195.818 411.519 197.316C413.169 198.814 415.467 199.563 418.412 199.563C421.307 199.563 423.528 198.853 425.077 197.431C426.626 196.009 427.4 194.092 427.4 191.68C427.4 189.547 426.613 187.82 425.039 186.5C423.49 185.18 420.507 183.771 416.089 182.272C410.63 180.394 406.618 178.172 404.054 175.607C401.489 173.018 400.207 169.514 400.207 165.096C400.207 160.449 401.807 156.742 405.006 153.975C408.23 151.182 412.585 149.785 418.069 149.785C423.478 149.785 427.832 151.093 431.133 153.708C434.434 156.323 436.084 160.018 436.084 164.791V166.962H426.601V165.477C426.601 162.887 425.877 160.868 424.43 159.421C423.008 157.948 420.951 157.212 418.26 157.212C415.365 157.212 413.271 157.859 411.976 159.154C410.681 160.424 410.033 162.138 410.033 164.296C410.033 166.302 410.846 167.939 412.471 169.209C414.096 170.453 417.181 171.824 421.726 173.322C427.058 175.074 430.968 177.309 433.456 180.025C435.97 182.742 437.227 186.348 437.227 190.842C437.227 195.768 435.513 199.665 432.085 202.534C428.683 205.378 424.163 206.8 418.526 206.8C412.864 206.8 408.256 205.479 404.701 202.839C401.172 200.198 399.407 196.313 399.407 191.185ZM443.32 186.233V150.547H453.68V187.452C453.68 191.718 454.454 194.765 456.003 196.593C457.552 198.421 459.723 199.335 462.516 199.335C465.309 199.335 467.467 198.421 468.99 196.593C470.539 194.765 471.313 191.718 471.313 187.452V150.547H481.673V186.233C481.673 193.241 479.997 198.421 476.646 201.772C473.294 205.124 468.622 206.8 462.63 206.8C456.536 206.8 451.788 205.124 448.386 201.772C445.009 198.421 443.32 193.241 443.32 186.233ZM488.262 179.797V176.75C488.262 167.279 490.28 160.411 494.317 156.146C498.354 151.88 503.585 149.747 510.009 149.747C516.255 149.747 521.092 151.321 524.52 154.47C527.947 157.593 529.661 162.15 529.661 168.143V170.656H519.683V167.381C519.683 164.105 518.883 161.604 517.283 159.878C515.709 158.151 513.335 157.288 510.161 157.288C506.683 157.288 503.979 158.659 502.049 161.401C500.145 164.144 499.192 168.447 499.192 174.312V182.234C499.192 188.049 500.183 192.365 502.163 195.184C504.144 197.977 506.86 199.373 510.313 199.373C513.386 199.373 515.709 198.497 517.283 196.745C518.857 194.993 519.657 192.276 519.683 188.595V186.005H529.661V189.052C529.636 194.536 527.922 198.865 524.52 202.039C521.143 205.188 516.293 206.762 509.971 206.762C503.191 206.762 497.872 204.604 494.013 200.287C490.179 195.945 488.262 189.115 488.262 179.797ZM534.422 179.797V176.75C534.422 167.279 536.44 160.411 540.478 156.146C544.515 151.88 549.745 149.747 556.169 149.747C562.415 149.747 567.252 151.321 570.68 154.47C574.107 157.593 575.821 162.15 575.821 168.143V170.656H565.843V167.381C565.843 164.105 565.043 161.604 563.443 159.878C561.869 158.151 559.495 157.288 556.321 157.288C552.843 157.288 550.139 158.659 548.209 161.401C546.305 164.144 545.353 168.447 545.353 174.312V182.234C545.353 188.049 546.343 192.365 548.323 195.184C550.304 197.977 553.021 199.373 556.474 199.373C559.546 199.373 561.869 198.497 563.443 196.745C565.018 194.993 565.817 192.276 565.843 188.595V186.005H575.821V189.052C575.796 194.536 574.082 198.865 570.68 202.039C567.303 205.188 562.453 206.762 556.131 206.762C549.352 206.762 544.032 204.604 540.173 200.287C536.339 195.945 534.422 189.115 534.422 179.797ZM582.144 206V150.547H615.507V158.926H592.16V173.894H612.041V181.473H592.16V197.85H616.002V206H582.144ZM620.458 191.185V188.404H630.094V190.461C630.094 193.533 630.919 195.818 632.569 197.316C634.22 198.814 636.518 199.563 639.463 199.563C642.357 199.563 644.579 198.853 646.128 197.431C647.677 196.009 648.451 194.092 648.451 191.68C648.451 189.547 647.664 187.82 646.09 186.5C644.541 185.18 641.558 183.771 637.14 182.272C631.681 180.394 627.669 178.172 625.104 175.607C622.54 173.018 621.258 169.514 621.258 165.096C621.258 160.449 622.857 156.742 626.057 153.975C629.281 151.182 633.636 149.785 639.12 149.785C644.528 149.785 648.883 151.093 652.184 153.708C655.484 156.323 657.135 160.018 657.135 164.791V166.962H647.651V165.477C647.651 162.887 646.928 160.868 645.48 159.421C644.059 157.948 642.002 157.212 639.311 157.212C636.416 157.212 634.321 157.859 633.026 159.154C631.731 160.424 631.084 162.138 631.084 164.296C631.084 166.302 631.896 167.939 633.521 169.209C635.146 170.453 638.231 171.824 642.776 173.322C648.108 175.074 652.019 177.309 654.507 180.025C657.021 182.742 658.277 186.348 658.277 190.842C658.277 195.768 656.563 199.665 653.136 202.534C649.733 205.378 645.214 206.8 639.577 206.8C633.915 206.8 629.307 205.479 625.752 202.839C622.223 200.198 620.458 196.313 620.458 191.185ZM663.495 191.185V188.404H673.131V190.461C673.131 193.533 673.956 195.818 675.606 197.316C677.257 198.814 679.555 199.563 682.5 199.563C685.395 199.563 687.616 198.853 689.165 197.431C690.714 196.009 691.488 194.092 691.488 191.68C691.488 189.547 690.701 187.82 689.127 186.5C687.578 185.18 684.595 183.771 680.177 182.272C674.718 180.394 670.706 178.172 668.142 175.607C665.577 173.018 664.295 169.514 664.295 165.096C664.295 160.449 665.895 156.742 669.094 153.975C672.318 151.182 676.673 149.785 682.157 149.785C687.565 149.785 691.92 151.093 695.221 153.708C698.521 156.323 700.172 160.018 700.172 164.791V166.962H690.688V165.477C690.688 162.887 689.965 160.868 688.518 159.421C687.096 157.948 685.039 157.212 682.348 157.212C679.453 157.212 677.358 157.859 676.063 159.154C674.769 160.424 674.121 162.138 674.121 164.296C674.121 166.302 674.934 167.939 676.559 169.209C678.184 170.453 681.269 171.824 685.813 173.322C691.146 175.074 695.056 177.309 697.544 180.025C700.058 182.742 701.314 186.348 701.314 190.842C701.314 195.768 699.601 199.665 696.173 202.534C692.771 205.378 688.251 206.8 682.614 206.8C676.952 206.8 672.344 205.479 668.789 202.839C665.26 200.198 663.495 196.313 663.495 191.185Z" fill="#F9EFEC"/>
</svg>
